<svg fill="none" height="30" viewBox="0 0 144 30" width="144" xmlns="http://www.w3.org/2000/svg"><g fill="#08111d"><path clip-rule="evenodd" d="m0 22.992v-8.217h8.474v8.217zm8.474-8.217v-8.217h8.473v8.217z" fill-rule="evenodd"/><path d="m21.215 29.916v-23.218h3.284v3.741l-.504-.281c.129-.624.485-1.219 1.074-1.791.59-.572 1.312-1.04 2.163-1.401.85-.361 1.734-.544 2.637-.544 1.497 0 2.823.366 3.983 1.092 1.16.727 2.072 1.725 2.747 2.991.675 1.265 1.012 2.723 1.012 4.364 0 1.64-.333 3.07-.993 4.345-.665 1.28-1.573 2.288-2.733 3.024-1.16.735-2.466 1.106-3.916 1.106-.969 0-1.906-.192-2.813-.577-.908-.384-1.673-.876-2.305-1.481-.632-.6-1.022-1.223-1.169-1.87l.822-.436v10.936zm8.217-9.535c.97 0 1.835-.239 2.59-.717.761-.478 1.359-1.134 1.801-1.964s.666-1.777.666-2.836-.214-2.001-.647-2.822c-.432-.82-1.026-1.467-1.787-1.945-.76-.478-1.634-.717-2.623-.717-.988 0-1.863.234-2.623.703-.761.469-1.359 1.115-1.801 1.95-.442.83-.666 1.776-.666 2.836 0 1.059.224 2.006.666 2.836.442.829 1.04 1.486 1.801 1.964.76.478 1.63.717 2.623.717z"/><path d="m39.669 23.063v-16.365h3.284v5.143l-.314-1.247c.233-.788.628-1.505 1.184-2.152.556-.642 1.202-1.153 1.929-1.528s1.478-.562 2.258-.562c.356 0 .698.032 1.026.093s.585.136.775.221l-.856 3.492c-.252-.103-.532-.192-.836-.263-.304-.07-.604-.107-.898-.107-.571 0-1.112.107-1.626.328-.518.22-.969.52-1.359.904-.39.385-.699.83-.931 1.341-.233.511-.347 1.064-.347 1.669v9.037h-3.284z"/><path d="m57.89 23.372c-1.621 0-3.07-.37-4.344-1.106-1.273-.736-2.281-1.744-3.018-3.024-.736-1.279-1.107-2.737-1.107-4.378s.366-3.098 1.107-4.378c.737-1.28 1.745-2.288 3.018-3.023 1.274-.736 2.723-1.107 4.344-1.107s3.037.371 4.31 1.107c1.274.735 2.282 1.743 3.018 3.023.737 1.28 1.108 2.737 1.108 4.378s-.371 3.103-1.108 4.378c-.736 1.28-1.744 2.288-3.018 3.024-1.273.736-2.713 1.106-4.31 1.106zm0-2.93c.988 0 1.872-.244 2.652-.731.779-.488 1.392-1.153 1.834-1.992s.651-1.791.632-2.85c.019-1.078-.19-2.039-.632-2.883-.442-.839-1.055-1.5-1.834-1.978-.78-.478-1.664-.717-2.652-.717-.989 0-1.882.243-2.671.731-.789.487-1.407 1.153-1.849 1.992s-.651 1.791-.632 2.85c-.019 1.059.19 2.011.632 2.85.442.844 1.06 1.505 1.849 1.992.789.488 1.678.732 2.671.732z"/><path d="m68.341 29.916v-23.218h3.284v3.741l-.504-.281c.128-.624.485-1.219 1.074-1.791s1.312-1.04 2.162-1.401c.851-.361 1.735-.544 2.638-.544 1.497 0 2.823.366 3.982 1.092 1.16.727 2.073 1.725 2.747 2.991.675 1.265 1.013 2.723 1.013 4.364 0 1.64-.333 3.07-.994 4.345-.665 1.28-1.573 2.288-2.732 3.024-1.16.735-2.467 1.106-3.916 1.106-.97 0-1.906-.192-2.814-.577-.907-.384-1.673-.876-2.305-1.481-.632-.6-1.021-1.223-1.169-1.87l.822-.436v10.936zm8.217-9.535c.969 0 1.834-.239 2.59-.717.76-.478 1.359-1.134 1.801-1.964s.665-1.777.665-2.836-.214-2.001-.646-2.822c-.433-.82-1.027-1.467-1.787-1.945s-1.635-.717-2.623-.717c-.989 0-1.863.234-2.624.703-.76.469-1.359 1.115-1.801 1.95-.442.83-.665 1.776-.665 2.836 0 1.059.223 2.006.665 2.836.442.829 1.041 1.486 1.801 1.964.761.478 1.63.717 2.624.717z"/><path d="m94.612 23.372c-1.706 0-3.217-.356-4.534-1.074-1.316-.717-2.347-1.696-3.098-2.943-.746-1.247-1.122-2.682-1.122-4.299 0-1.289.209-2.461.632-3.52s1.008-1.978 1.754-2.756 1.644-1.383 2.685-1.81c1.041-.426 2.177-.637 3.398-.637 1.074 0 2.072.201 3.004.609.926.403 1.734.961 2.419 1.669.684.708 1.212 1.542 1.578 2.508.365.965.541 2.02.522 3.164l-.033 1.373h-13.554l-.727-2.554h11.468l-.476.529v-.75c-.061-.684-.294-1.298-.693-1.837-.4-.539-.908-.966-1.517-1.28-.613-.314-1.273-.469-1.991-.469-1.136 0-2.096.211-2.875.638-.779.426-1.369 1.05-1.768 1.87s-.599 1.833-.599 3.038c0 1.204.243 2.132.727 2.976.485.839 1.169 1.491 2.053 1.95.884.46 1.906.685 3.066.685.822 0 1.582-.136 2.29-.404.704-.271 1.469-.759 2.291-1.462l1.644 2.273c-.503.497-1.121.933-1.848 1.308s-1.497.671-2.305.886c-.813.22-1.607.328-2.386.328z"/><path d="m103.932 23.063v-23.063h3.255v23.063z"/><path d="m110.191 23.063v-23.063h3.255v23.063z"/><path d="m124.263 23.372c-1.706 0-3.217-.356-4.534-1.074-1.316-.717-2.348-1.696-3.098-2.943-.747-1.247-1.122-2.682-1.122-4.299 0-1.289.209-2.461.632-3.52s1.008-1.978 1.754-2.756 1.644-1.383 2.685-1.81c1.041-.426 2.176-.637 3.398-.637 1.074 0 2.072.201 3.003.609.927.403 1.735.961 2.419 1.669.685.708 1.212 1.542 1.578 2.508.366.965.542 2.02.523 3.164l-.033 1.373h-13.554l-.727-2.554h11.467l-.475.529v-.75c-.062-.684-.295-1.298-.694-1.837s-.908-.966-1.516-1.28c-.613-.314-1.274-.469-1.991-.469-1.136 0-2.096.211-2.875.638-.78.426-1.369 1.05-1.768 1.87-.4.82-.599 1.833-.599 3.038 0 1.204.242 2.132.727 2.976.485.839 1.169 1.491 2.053 1.95.884.46 1.906.685 3.065.685.823 0 1.583-.136 2.291-.404.703-.271 1.469-.759 2.291-1.462l1.644 2.273c-.504.497-1.121.933-1.849 1.308-.727.375-1.497.671-2.305.886-.812.22-1.606.328-2.385.328z"/><path d="m133.568 23.063v-16.365h3.284v5.143l-.313-1.247c.232-.788.627-1.505 1.183-2.152.556-.642 1.202-1.153 1.93-1.528.727-.375 1.478-.562 2.257-.562.356 0 .699.032 1.026.093.328.061.585.136.775.221l-.855 3.492c-.252-.103-.533-.192-.837-.263-.304-.07-.603-.107-.898-.107-.57 0-1.112.107-1.625.328-.518.22-.97.52-1.36.904-.389.385-.698.83-.931 1.341s-.347 1.064-.347 1.669v9.037h-3.284z"/></g></svg>